{"title":"Desperately.Seeking.Santa.2011.iNTERNAL.HDTV.XviD-SarjP","uid":6890499,"size":1492126136,"categoryP":"video","categoryS":"movies","magnet":"?xt=urn:btih:9852ef0cbc84baf37706bd27a3a92cb4367777a9&amp;dn=Desperately.Seeking.Santa.2011.iNTERNAL.HDTV.XviD-SarjP&amp;tr=udp%3A%2F%2Ftracker.openbittorrent.com%3A80&amp;tr=udp%3A%2F%2Fopen.demonii.com%3A1337&amp;tr=udp%3A%2F%2Ftracker.coppersurfer.tk%3A6969&amp;tr=udp%3A%2F%2Fexodus.desync.com%3A6969","seeders":1,"leechers":1,"uploader":"TvTeam","files":5,"time":1323993032,"description":". \n &lt;a href=&quot;\nhttp://www.torrenting.com&quot; rel=&quot;nofollow&quot; target=&quot;_NEW&quot;&gt;\nhttp://www.torrenting.com&lt;/a&gt;          :     Once &amp; For all ;)\n\n\n               www . Torrenting . Com \n\n(((((((((((((= Enjoy No RAR releases =))))))))))))))))))))\n\n\n...................................NFO:....................................\n\n.http://www.imdb.com/title/tt1967688/\n\nGeneral\nComplete name                  : Desperately.Seeking.Santa.2011.iNTERNAL.HDTV.XviD-SarjP\\Desperately.Seeking.Santa.2011.iNTERNAL.HDTV.XviD-SarjP.avi\nFormat                         : AVI\nFormat/Info                    : Audio Video Interleave\nFile size                      : 1.37 GiB\nDuration                       : 1h 26mn\nOverall bit rate               : 2 273 Kbps\nWriting application            : VirtualDubMod 1.5.4.1 (build 2178/release)\nWriting library                : VirtualDubMod build 2178/release\n\nVideo\nID                             : 0\nFormat                         : MPEG-4 Visual\nFormat profile                 : Advanced Simple@L5\nFormat settings, BVOP          : 1\nFormat settings, QPel          : No\nFormat settings, GMC           : No warppoints\nFormat settings, Matrix        : Custom\nCodec ID                       : XVID\nCodec ID/Hint                  : XviD\nDuration                       : 1h 26mn\nBit rate                       : 1 882 Kbps\nWidth                          : 896 pixels\nHeight                         : 512 pixels\nDisplay aspect ratio           : 16:9\nFrame rate                     : 23.976 fps\nColor space                    : YUV\nChroma subsampling             : 4:2:0\nBit depth                      : 8 bits\nScan type                      : Progressive\nCompression mode               : Lossy\nBits/(Pixel*Frame)             : 0.171\nStream size                    : 1.13 GiB (83%)\nWriting library                : XviD 64\n\nAudio\nID                             : 1\nFormat                         : AC-3\nFormat/Info                    : Audio Coding 3\nMode extension                 : CM (complete main)\nCodec ID                       : 2000\nDuration                       : 1h 26mn\nBit rate mode                  : Constant\nBit rate                       : 384 Kbps\nChannel(s)                     : 6 channels\nChannel positions              : Front: L C R, Side: L R, LFE\nSampling rate                  : 48.0 KHz\nBit depth                      : 16 bits\nCompression mode               : Lossy\nDelay relative to video        : 31ms\nStream size                    : 237 MiB (17%)\nAlignment                      : Split accross interleaves\nInterleave, duration           : 96 ms (2.30 video frames)\nInterleave, preload duration   : 96 ms","torrent":{"xt":"urn:btih:9852ef0cbc84baf37706bd27a3a92cb4367777a9","amp;dn":"Desperately.Seeking.Santa.2011.iNTERNAL.HDTV.XviD-SarjP","amp;tr":["udp%3A%2F%2Ftracker.openbittorrent.com%3A80","udp%3A%2F%2Fopen.demonii.com%3A1337","udp%3A%2F%2Ftracker.coppersurfer.tk%3A6969","udp%3A%2F%2Fexodus.desync.com%3A6969"],"infoHash":"9852ef0cbc84baf37706bd27a3a92cb4367777a9","infoHashBuffer":{"type":"Buffer","data":[152,82,239,12,188,132,186,243,119,6,189,39,163,169,44,180,54,119,119,169]},"announce":[],"urlList":[]}}